# xmcd CD database file
#
# Track frame offsets:
#	150
#	14987
#	27565
#	41877
#	55921
#	66323
#	81192
#	97003
#	108633
#	124646
#	139029
#	153666
#
# Disc length: 2242 seconds
#
# Revision: 0
# Processed by: cddbd v1.5.2PL0 Copyright (c) Steve Scherf et al.
# Submitted via: CDex 1.51
#
DISCID=b308c00c
DTITLE=Direct Source Jazz - I Can't Give You Anything But Love
DYEAR=2006
DGENRE=Jazz
TTITLE0=Les Brown and Doris Day - My Dreams Are Getting Better All The Time
TTITLE1=Dinah Shore and Freddy Martin - I Can't Give You Anything But Love
TTITLE2=Harry James - You Made Me Love You
TTITLE3=Woody Herman and Frances Wayne - Gee, It's Good To Hold You
TTITLE4=Tony Bennett - Anything Goes [Cole Porter]
TTITLE5=Louis Armstrong - Sweethearts On Parade
TTITLE6=Artie Shaw - Lover, Come Back To Me
TTITLE7=Glenn Miller and Day Eberle - Our Love Affair
TTITLE8=Tommy Dorsey - I'm Getting Sentimental Over You
TTITLE9=Benny Goodman and Liza Morrow - My Guy's Come Back
TTITLE10=Buddy Clark and Anita Gordon and Ray Noble - Linda
TTITLE11=Hal Kemp and Skinny Ennis - Remember Me
EXTD=YEAR: 2006
EXTT0=
EXTT1=
EXTT2=
EXTT3=
EXTT4=
EXTT5=
EXTT6=
EXTT7=
EXTT8=
EXTT9=
EXTT10=
EXTT11=
PLAYORDER=
